<svg fill="none" width="169" height="35" xmlns="http://www.w3.org/2000/svg" viewBox="0 0 1535 272"><path d="M682.876 70.734c11.406 0 20.653-9.32 20.653-20.814 0-11.496-9.247-20.814-20.653-20.814-11.407 0-20.653 9.318-20.653 20.814 0 11.495 9.246 20.814 20.653 20.814z" fill="#1F313C"/><path d="M974.126 197.433c-9.198 25.119-29.745 27.064-35.863 27.064-13.301 0-24.872-6.12-34.597-17.75a160.488 160.488 0 006.676-13.032c13.027-28.521 20.495-65.908 20.495-102.54 0-16.072-.527-36.727-4.63-53.873C918.823 6.473 902.431 0 889.974 0c-12.151 0-28.627 6.197-38.067 35.739-6.329 19.857-7.3 43.254-7.3 55.437 0 8.302.76 51.801 15.822 92.94a163.532 163.532 0 0010 22.323c-10.189 11.927-22.067 18.1-35.515 18.1-15.706 0-27.815-9.415-36.918-21.268.686-1.19 1.35-2.413 2.015-3.646 16.222-30.317 25.526-69.851 25.526-108.428 0-14.702-.496-36.292-4.842-53.96C813.132 6.475 796.73.033 784.305.033c-28.596 0-44.987 33.23-44.987 91.175 0 34.177 7.563 71.669 20.241 100.297a172.24 172.24 0 005.664 11.608c-10.642 13.819-22.467 21.483-33.753 21.483-8.122 0-14.293-2.444-19.43-7.675-20.853-21.26-20.357-82.766-19.946-120.121v-1.063l-27.498-.149v.776c-.243 10.279-6.688 18.837-19.155 25.438a77.601 77.601 0 01-22.953 7.654c-2.109-8.972-5.727-16.753-11.444-21.314-6.129-4.868-16.877-7.281-27.193 1.946-16.265 14.584-13.396 26.884-10.242 32.953 4.293 8.228 13.343 12.757 24.324 14.479.052 3.635 0 7.558-.264 11.757-1.224 21.26-6.192 40.395-12.963 49.887-4.568 6.379-7.5 5.443-9.631 4.731-2.51-.829-9.567-4.773-20.832-23.206-8.217-13.468-15.727-29.765-21.771-42.84-3.386-7.335-6.329-13.67-8.85-18.443-2.837-5.315-7.594-14.266-17.404-14.404h-.2c-2.79.018-5.518.825-7.875 2.328a14.978 14.978 0 00-5.458 6.176c-39.175 79.259-65.155 92.483-71.874 90.899-.823-.202-20.336-5.91-20.284-99.924 0-18.018-8.09-27.639-14.872-32.592-12.763-9.26-32.372-10.63-61.695-4.422-6.013 1.286-12.299 2.848-18.744 4.624.2-32.848.39-62.591.401-63.208l-27.499-.18c0 .659-.232 35.632-.453 71.669-9.652 3.104-19.419 6.378-29.071 9.641-37.455 12.629-76.198 25.683-96.208 23.493-17.499-1.913-23.205-11.215-31.158-24.088-7.7-12.501-17.288-28.064-39.186-32.954C58.921 71.286 19.535 87.391 0 101.02l15.643 22.78c19.429-13.543 49.986-22.632 60.44-20.283 10.126 2.264 14.43 8.6 21.781 20.538 4.493 7.292 9.588 15.562 17.351 22.504 9.262 8.26 20.453 13.011 34.218 14.51 26.001 2.849 65.767-10.556 107.885-24.747a2650.98 2650.98 0 0120.178-6.75c-.127 21.494-.211 38.372-.211 45.176 0 26.32 2.531 42.638 8.438 54.554 7.648 15.159 20.97 22.94 39.64 22.94 9.746 0 17.752-1.233 32.129-7.728l-11.255-25.332c-10.938 4.943-15.189 5.315-20.874 5.315-10.548 0-20.569 0-20.569-49.845 0-7.675.116-28.688.264-53.861 8.617-2.519 16.877-4.698 24.608-6.378 27.056-5.751 36.644-2.594 39.945-.191.939.68 3.439 2.487 3.439 10.099 0 37.205 2.996 66.481 8.966 86.944 6.698 22.983 17.646 36.556 32.519 40.086 16.465 3.922 34.555-5.357 53.732-27.308 12.351-14.138 25.125-33.326 38.12-57.223.401.872.791 1.722 1.181 2.551 18.206 39.471 35.209 73.184 58.9 81.071 8.438 2.828 29.83 5.98 44.903-22.275 8.354-15.647 13.607-40.044 14.06-65.269v-5.996c3.27-.521 6.519-1.18 9.694-1.977a95.67 95.67 0 0029.988-12.82c1.761 39.215 8.016 74.412 27.424 94.194 10.348 10.556 23.459 15.946 39.028 15.946 17.931 0 35.156-8.908 50.05-25.587 14.957 16.753 33.005 25.583 53.394 25.583 19.777 0 37.319-7.916 51.949-22.915 17.056 17.848 36.042 22.852 51.41 22.852 21.792 0 49.428-11.874 61.632-45.189l-25.874-9.556zm-192.121-23.799c-11.096-28.298-15.136-60.592-15.136-82.458 0-39.205 9.082-63.474 17.499-63.474 5.168 0 8.502 11.322 9.704 16.18 3.618 14.723 4.04 34.016 4.04 47.294 0 28.871-5.791 58.147-16.107 82.458zm105.385 3.923c-.387-.985-.766-1.995-1.139-3.03-10.422-28.468-14.113-62.718-14.113-83.351 0-37.961 9.24-63.474 17.868-63.474 5.095 0 8.343 11.258 9.493 16.105 3.46 14.457 3.861 34.017 3.861 47.368.01 30.35-5.918 62.198-15.97 86.382z" fill="#1F313C"/><path d="M1180.67 170.544h-23.27c-.67-3.817-1.89-7.199-3.67-10.145-1.79-2.987-4.01-5.518-6.66-7.593-2.66-2.074-5.69-3.63-9.09-4.667-3.36-1.079-6.99-1.618-10.89-1.618-6.93 0-13.07 1.742-18.42 5.227-5.36 3.444-9.55 8.506-12.58 15.186-3.03 6.639-4.54 14.751-4.54 24.335 0 9.751 1.51 17.966 4.54 24.646 3.07 6.639 7.26 11.659 12.58 15.061 5.35 3.361 11.47 5.042 18.36 5.042 3.81 0 7.38-.498 10.7-1.494 3.36-1.037 6.37-2.552 9.02-4.543 2.7-1.992 4.96-4.44 6.79-7.344 1.87-2.905 3.15-6.224 3.86-9.958l23.27.124c-.87 6.058-2.76 11.742-5.66 17.053-2.86 5.311-6.62 10-11.26 14.066-4.65 4.024-10.09 7.178-16.31 9.46-6.22 2.24-13.13 3.361-20.73 3.361-11.2 0-21.2-2.594-29.99-7.78-8.8-5.186-15.73-12.676-20.79-22.468-5.06-9.792-7.59-21.534-7.59-35.226 0-13.734 2.55-25.476 7.65-35.226 5.1-9.792 12.05-17.281 20.85-22.468 8.8-5.186 18.75-7.779 29.87-7.779 7.1 0 13.7.995 19.8 2.987 6.09 1.992 11.53 4.917 16.3 8.775 4.77 3.818 8.69 8.506 11.76 14.066 3.12 5.518 5.15 11.825 6.1 18.92zM1216.65 255H1192l44.87-127.462h28.51L1310.31 255h-24.64l-34.05-101.322h-.99L1216.65 255zm.81-49.976h67.21v18.546h-67.21v-18.546zM1327.1 255V127.538h47.8c9.79 0 18.01 1.701 24.65 5.104 6.68 3.402 11.72 8.173 15.12 14.314 3.44 6.099 5.17 13.215 5.17 21.348 0 8.173-1.75 15.268-5.23 21.285-3.45 5.974-8.53 10.601-15.25 13.879-6.72 3.236-14.98 4.854-24.77 4.854h-34.04v-19.169h30.93c5.72 0 10.41-.788 14.06-2.365 3.65-1.618 6.35-3.962 8.09-7.033 1.79-3.112 2.68-6.929 2.68-11.451 0-4.523-.89-8.382-2.68-11.577-1.78-3.236-4.5-5.684-8.15-7.344-3.65-1.701-8.36-2.551-14.13-2.551h-21.16V255h-23.09zm65.85-57.756L1424.5 255h-25.76l-31-57.756h25.21zM1441.09 255V127.538h82.9v19.356h-59.81v34.604h55.52v19.356h-55.52v34.79h60.31V255h-83.4z" fill="#F24C00"/></svg>