<svg width="226" height="105" viewBox="0 0 226 105" fill="none" xmlns="http://www.w3.org/2000/svg">
<path d="M152.949 16.4944C155.503 16.4944 157.574 14.3972 157.574 11.81C157.574 9.22294 155.503 7.12567 152.949 7.12567C150.394 7.12567 148.323 9.22294 148.323 11.81C148.323 14.3972 150.394 16.4944 152.949 16.4944Z" fill="white"/>
<path d="M218.182 45.0092C216.122 50.6625 211.52 51.1004 210.149 51.1004C207.17 51.1004 204.579 49.7229 202.4 47.1056C202.925 46.1869 203.423 45.2092 203.896 44.1724C206.814 37.7536 208.486 29.3394 208.486 21.0951C208.486 17.4777 208.368 12.8292 207.449 8.97023C205.795 2.03218 202.124 0.575195 199.334 0.575195C196.612 0.575195 192.922 1.96998 190.808 8.61854C189.39 13.0876 189.173 18.3533 189.173 21.0951C189.173 22.9636 189.343 32.7534 192.717 42.0121C193.337 43.7414 194.086 45.4208 194.956 47.0362C192.674 49.7205 190.014 51.1098 187.002 51.1098C183.484 51.1098 180.772 48.9908 178.733 46.3232C178.886 46.0553 179.035 45.7802 179.184 45.5026C182.818 38.6794 184.901 29.782 184.901 21.0999C184.901 17.7911 184.79 12.9321 183.817 8.95588C182.123 2.03219 178.449 0.582372 175.666 0.582372C169.262 0.582372 165.59 8.06111 165.59 21.1022C165.59 28.7939 167.284 37.232 170.124 43.6748C170.528 44.5887 170.951 45.462 171.393 46.2874C169.009 49.3975 166.36 51.1225 163.833 51.1225C162.013 51.1225 160.631 50.5722 159.481 49.3951C154.81 44.6103 154.921 30.7677 155.013 22.3607C155.013 22.2817 155.013 22.2004 155.013 22.1214L148.854 22.0879C148.854 22.1453 148.854 22.2052 148.854 22.2626C148.8 24.5761 147.356 26.502 144.564 27.9877C142.949 28.829 141.215 29.4101 139.423 29.7102C138.951 27.691 138.14 25.9397 136.86 24.9134C135.487 23.8177 133.08 23.2746 130.769 25.3512C127.126 28.6336 127.769 31.4017 128.475 32.7677C129.437 34.6195 131.464 35.6387 133.923 36.0262C133.935 36.8444 133.923 37.7272 133.864 38.6723C133.59 43.4571 132.477 47.7635 130.961 49.8999C129.938 51.3354 129.281 51.1249 128.804 50.9646C128.241 50.7779 126.661 49.8904 124.138 45.7419C122.297 42.7107 120.615 39.0431 119.262 36.1004C118.503 34.4496 117.844 33.0237 117.279 31.9495C116.644 30.7533 115.578 28.7389 113.381 28.7078H113.336C112.712 28.7119 112.101 28.8934 111.573 29.2318C111.045 29.5701 110.621 30.0517 110.35 30.6217C101.576 48.4597 95.757 51.4359 94.2521 51.0794C94.0678 51.0339 89.6972 49.7492 89.709 28.5905C89.709 24.5354 87.8969 22.3702 86.3778 21.2554C83.5192 19.1716 79.1273 18.8629 72.5596 20.2601C71.2129 20.5496 69.8049 20.9013 68.3614 21.3008C68.4063 13.9082 68.4488 7.21418 68.4512 7.07542L62.2921 7.03476C62.2921 7.18309 62.2402 15.0542 62.1905 23.1645C60.0289 23.8631 57.8412 24.6 55.6795 25.3345C47.2902 28.1767 38.6128 31.1146 34.1311 30.6217C30.2117 30.1911 28.9336 28.0977 27.1522 25.2005C25.4276 22.387 23.2801 18.8845 18.3756 17.7839C13.1969 16.6188 4.37536 20.2434 0 23.3105L3.50359 28.4374C7.85532 25.3895 14.6995 23.344 17.0407 23.8727C19.3087 24.3823 20.2726 25.8082 21.9193 28.4949C22.9257 30.1361 24.0668 31.9974 25.8056 33.5596C27.8799 35.4185 30.3865 36.488 33.4696 36.8253C39.2932 37.4665 48.1998 34.4496 57.6333 31.2557C59.1335 30.7461 60.6478 30.2342 62.1527 29.7365C62.1244 34.574 62.1055 38.3726 62.1055 39.9038C62.1055 45.8274 62.6725 49.4998 63.9955 52.1817C65.7083 55.5933 68.6921 57.3446 72.8738 57.3446C75.0567 57.3446 76.8499 57.0671 80.07 55.6053L77.5492 49.9041C75.0993 51.0166 74.1472 51.1004 72.8738 51.1004C70.5113 51.1004 68.2669 51.1004 68.2669 39.8823C68.2669 38.1549 68.2929 33.4257 68.326 27.7604C70.2561 27.1934 72.106 26.7029 73.8377 26.3249C79.8975 25.0306 82.045 25.7412 82.7845 26.2819C82.9947 26.435 83.5547 26.8417 83.5547 28.5547C83.5547 36.9282 84.2256 43.5169 85.5628 48.1224C87.063 53.2948 89.5153 56.3496 92.8464 57.1439C96.5343 58.0267 100.586 55.9384 104.881 50.9981C107.647 47.8161 110.508 43.4978 113.419 38.1196C113.509 38.3158 113.596 38.5072 113.684 38.6938C117.761 47.5769 121.57 55.1643 126.876 56.9395C128.766 57.5759 133.557 58.2854 136.933 51.9263C138.804 48.4047 139.981 42.914 140.082 37.2368C140.082 36.799 140.082 36.3468 140.082 35.8875C140.815 35.7702 141.542 35.6219 142.253 35.4425C144.638 34.8749 146.91 33.8992 148.97 32.5572C149.365 41.3829 150.766 49.3042 155.113 53.7565C157.43 56.1322 160.367 57.3452 163.854 57.3452C167.87 57.3452 171.728 55.3403 175.064 51.5866C178.414 55.3571 182.456 57.3444 187.023 57.3444C191.453 57.3444 195.381 55.5628 198.658 52.1871C202.478 56.204 206.731 57.3303 210.173 57.3303C215.054 57.3303 221.244 54.6579 223.977 47.16L218.182 45.0092ZM175.151 39.6531C172.666 33.2845 171.761 26.0163 171.761 21.0951C171.761 12.2718 173.795 6.80987 175.68 6.80987C176.838 6.80987 177.585 9.35781 177.854 10.4511C178.664 13.7647 178.759 18.1069 178.759 21.0951C178.759 27.5929 177.462 34.1817 175.151 39.6531ZM198.755 40.536C198.668 40.3143 198.583 40.087 198.5 39.8541C196.166 33.4472 195.339 25.7388 195.339 21.0951C195.339 12.5517 197.408 6.80987 199.341 6.80987C200.482 6.80987 201.21 9.34345 201.467 10.4344C202.242 13.6881 202.332 18.0902 202.332 21.0951C202.334 27.9255 201.007 35.0932 198.755 40.536Z" fill="white"/>
<path d="M222.228 3.66544L220.864 0.575195H221.417L222.371 2.84249L223.324 0.575195H223.877L222.513 3.66544H222.228ZM220.764 3.66544V0.575195H221.3V3.66544H220.764ZM223.442 3.66544V0.575195H223.977V3.66544H223.442ZM218.756 3.66544V0.843912H219.291V3.66544H218.756ZM217.819 1.04545V0.575195H220.229V1.04545H217.819Z" fill="white"/>
<path d="M88.5266 79.769H83.7487C83.6125 78.9838 83.3612 78.2882 82.995 77.6823C82.6288 77.0678 82.1731 76.5472 81.6281 76.1205C81.083 75.6937 80.4613 75.3737 79.7629 75.1603C79.0731 74.9384 78.3279 74.8275 77.5273 74.8275C76.105 74.8275 74.8446 75.1859 73.7459 75.9028C72.6473 76.6112 71.7871 77.6524 71.1654 79.0265C70.5437 80.392 70.2328 82.0605 70.2328 84.032C70.2328 86.0376 70.5437 87.7275 71.1654 89.1015C71.7956 90.4671 72.6558 91.4997 73.7459 92.1996C74.8446 92.8909 76.1008 93.2365 77.5145 93.2365C78.2981 93.2365 79.0305 93.1341 79.7118 92.9293C80.4017 92.7159 81.0191 92.4044 81.5642 91.9947C82.1178 91.5851 82.5819 91.0815 82.9567 90.4841C83.3399 89.8867 83.6039 89.2039 83.7487 88.4358L88.5266 88.4614C88.3477 89.7075 87.9602 90.8767 87.364 91.9691C86.7764 93.0616 86.0056 94.026 85.0518 94.8624C84.0979 95.6902 82.9822 96.3388 81.7047 96.8082C80.4272 97.2691 79.0092 97.4995 77.4507 97.4995C75.1512 97.4995 73.0987 96.9661 71.2931 95.8993C69.4876 94.8325 68.0653 93.292 67.0263 91.2778C65.9873 89.2637 65.4678 86.8484 65.4678 84.032C65.4678 81.2071 65.9915 78.7918 67.0391 76.7861C68.0866 74.772 69.5132 73.2315 71.3187 72.1647C73.1242 71.0979 75.1682 70.5645 77.4507 70.5645C78.907 70.5645 80.2612 70.7693 81.5131 71.1789C82.7651 71.5886 83.8807 72.1903 84.8601 72.984C85.8396 73.7692 86.6444 74.7336 87.2746 75.8772C87.9134 77.0123 88.3307 78.3096 88.5266 79.769Z" fill="#F24C00"/>
<path d="M95.9105 97.1411H90.8516L100.062 70.9229H105.913L115.137 97.1411H110.078L103.09 76.2997H102.886L95.9105 97.1411ZM96.0765 86.8612H109.873V90.6761H96.0765V86.8612Z" fill="#F24C00"/>
<path d="M118.583 97.1411V70.9229H128.394C130.404 70.9229 132.09 71.2728 133.453 71.9727C134.824 72.6725 135.859 73.654 136.557 74.9171C137.264 76.1717 137.617 77.6353 137.617 79.3081C137.617 80.9894 137.26 82.4488 136.544 83.6863C135.838 84.9153 134.794 85.8669 133.415 86.5412C132.035 87.2068 130.34 87.5397 128.33 87.5397H121.342V83.5967H127.691C128.867 83.5967 129.829 83.4346 130.578 83.1103C131.328 82.7774 131.882 82.2952 132.239 81.6636C132.605 81.0236 132.789 80.2384 132.789 79.3081C132.789 78.3778 132.605 77.5841 132.239 76.927C131.873 76.2613 131.315 75.7577 130.566 75.4164C129.816 75.0664 128.85 74.8915 127.666 74.8915H123.322V97.1411H118.583ZM132.099 85.261L138.576 97.1411H133.287L126.925 85.261H132.099Z" fill="#F24C00"/>
<path d="M141.98 97.1411V70.9229H158.996V74.9043H146.72V82.0221H158.115V86.0035H146.72V93.1597H159.099V97.1411H141.98Z" fill="#F24C00"/>
</svg>
