<svg width="24" height="24" viewBox="0 0 24 24" fill="none" xmlns="http://www.w3.org/2000/svg"><path d="M11.100 3.045 C 8.051 3.333,5.288 5.262,3.917 8.060 C 2.232 11.497,2.926 15.644,5.641 18.359 C 8.361 21.079,12.532 21.773,15.957 20.077 C 17.780 19.174,19.206 17.744,20.080 15.940 C 20.507 15.060,20.742 14.308,20.906 13.300 C 21.006 12.686,21.006 11.314,20.906 10.700 C 20.742 9.692,20.507 8.940,20.080 8.060 C 18.440 4.678,14.877 2.688,11.100 3.045 M16.031 7.335 C 16.299 7.471,16.526 7.698,16.668 7.969 C 16.766 8.156,16.779 8.223,16.779 8.560 L 16.780 8.940 15.746 11.520 C 15.113 13.099,14.663 14.169,14.584 14.278 C 14.514 14.377,14.377 14.514,14.278 14.585 C 14.169 14.663,13.105 15.111,11.520 15.746 L 8.940 16.780 8.560 16.780 C 8.108 16.780,7.891 16.694,7.599 16.402 C 7.333 16.136,7.227 15.889,7.208 15.491 L 7.192 15.163 8.241 12.539 C 8.818 11.095,9.346 9.830,9.415 9.727 C 9.484 9.624,9.624 9.484,9.726 9.416 C 9.877 9.315,13.943 7.653,14.920 7.293 C 15.279 7.161,15.724 7.177,16.031 7.335 M11.687 11.385 C 11.614 11.422,11.506 11.516,11.447 11.593 C 11.356 11.713,11.340 11.773,11.340 12.000 C 11.340 12.232,11.355 12.286,11.455 12.417 C 11.725 12.771,12.274 12.773,12.542 12.421 C 12.768 12.124,12.708 11.677,12.410 11.450 C 12.233 11.315,11.886 11.283,11.687 11.385 " fill="#000" stroke="none" fill-rule="evenodd"></path></svg>