<svg width="24" height="24" viewBox="0 0 24 24" fill="none" xmlns="http://www.w3.org/2000/svg"><path d="M11.320 3.240 C 10.199 3.328,9.180 3.609,8.140 4.118 C 7.194 4.581,6.557 5.038,5.797 5.797 C 5.038 6.557,4.581 7.193,4.118 8.140 C 3.495 9.412,3.231 10.561,3.231 12.000 C 3.231 13.439,3.495 14.588,4.118 15.860 C 4.581 16.807,5.038 17.443,5.797 18.203 C 6.557 18.962,7.193 19.419,8.140 19.882 C 9.413 20.506,10.562 20.770,12.000 20.769 C 13.439 20.768,14.633 20.493,15.877 19.877 C 16.816 19.411,17.452 18.954,18.203 18.203 C 18.962 17.443,19.419 16.807,19.882 15.860 C 20.505 14.588,20.769 13.439,20.769 12.000 C 20.769 10.561,20.505 9.412,19.882 8.140 C 19.419 7.193,18.962 6.557,18.203 5.797 C 17.452 5.046,16.816 4.589,15.877 4.123 C 15.315 3.845,14.586 3.581,13.999 3.443 C 13.210 3.259,12.130 3.177,11.320 3.240 M13.446 4.934 C 14.119 5.079,14.585 5.244,15.220 5.560 C 15.974 5.936,16.433 6.272,17.081 6.919 C 17.682 7.520,18.041 7.997,18.377 8.643 C 18.942 9.726,19.199 10.775,19.199 12.000 C 19.199 13.529,18.765 14.902,17.881 16.169 C 17.547 16.648,16.656 17.540,16.160 17.891 C 15.704 18.214,14.802 18.672,14.286 18.842 C 13.084 19.238,11.673 19.311,10.440 19.039 C 9.580 18.849,8.560 18.398,7.840 17.890 C 7.347 17.542,6.458 16.653,6.110 16.160 C 5.769 15.677,5.319 14.782,5.145 14.240 C 4.879 13.412,4.820 13.007,4.820 12.000 C 4.820 10.993,4.879 10.588,5.145 9.760 C 5.319 9.218,5.769 8.323,6.110 7.840 C 6.460 7.345,7.350 6.454,7.831 6.119 C 8.560 5.610,9.397 5.221,10.196 5.019 C 10.910 4.839,11.267 4.802,12.160 4.818 C 12.847 4.831,13.056 4.850,13.446 4.934 M14.960 7.567 C 13.740 7.909,9.748 9.105,9.642 9.160 C 9.474 9.247,9.234 9.491,9.147 9.662 C 9.040 9.875,7.555 14.970,7.532 15.203 C 7.496 15.569,7.600 15.846,7.877 16.123 C 8.154 16.400,8.431 16.504,8.797 16.468 C 9.050 16.443,14.135 14.955,14.356 14.841 C 14.526 14.753,14.766 14.510,14.853 14.338 C 14.960 14.125,16.445 9.030,16.468 8.797 C 16.504 8.431,16.400 8.154,16.124 7.877 C 15.948 7.701,15.843 7.632,15.679 7.584 C 15.442 7.513,15.173 7.507,14.960 7.567 M14.710 9.330 C 14.700 9.357,14.426 10.289,14.101 11.400 C 13.776 12.511,13.490 13.441,13.465 13.466 C 13.424 13.508,9.316 14.730,9.293 14.707 C 9.278 14.692,10.473 10.629,10.512 10.562 C 10.533 10.527,11.387 10.255,12.603 9.895 C 13.734 9.561,14.675 9.285,14.694 9.284 C 14.713 9.282,14.720 9.303,14.710 9.330 M11.740 11.217 C 11.586 11.286,11.257 11.626,11.202 11.773 C 11.104 12.035,11.171 12.405,11.355 12.614 C 11.537 12.821,11.973 12.904,12.251 12.784 C 12.411 12.716,12.741 12.379,12.798 12.227 C 12.896 11.965,12.829 11.595,12.645 11.386 C 12.464 11.179,12.012 11.095,11.740 11.217 " stroke="none" fill="#666666" fill-rule="evenodd"></path></svg>