<svg width="16" height="16" viewBox="0 0 16 16" fill="none" xmlns="http://www.w3.org/2000/svg">
<path d="M7.28125 7.3125C6.875 7.6875 6.875 8.34375 7.28125 8.71875C7.65625 9.125 8.3125 9.125 8.6875 8.71875C9.09375 8.34375 9.09375 7.6875 8.6875 7.3125C8.3125 6.90625 7.65625 6.90625 7.28125 7.3125ZM8 0.25C3.71875 0.25 0.25 3.75 0.25 8C0.25 12.2812 3.71875 15.75 8 15.75C12.25 15.75 15.75 12.2812 15.75 8C15.75 3.75 12.25 0.25 8 0.25ZM11.9375 4.90625L9.875 9.40625C9.75 9.625 9.59375 9.78125 9.375 9.90625L4.875 11.9688C4.34375 12.1875 3.8125 11.6562 4.03125 11.125L6.09375 6.625C6.21875 6.40625 6.375 6.25 6.59375 6.125L11.0938 4.0625C11.625 3.84375 12.1562 4.375 11.9375 4.90625Z" fill="black"/>
</svg>
