<svg width="24" height="24" viewBox="0 0 24 24" fill="none" xmlns="http://www.w3.org/2000/svg"><path d="M11.320 3.240 C 10.199 3.328,9.180 3.609,8.140 4.118 C 7.194 4.581,6.557 5.038,5.797 5.797 C 5.038 6.557,4.581 7.193,4.118 8.140 C 3.495 9.412,3.231 10.561,3.231 12.000 C 3.231 13.439,3.495 14.588,4.118 15.860 C 4.581 16.807,5.038 17.443,5.797 18.203 C 6.557 18.962,7.193 19.419,8.140 19.882 C 9.413 20.506,10.562 20.770,12.000 20.769 C 13.439 20.768,14.633 20.493,15.877 19.877 C 16.816 19.411,17.452 18.954,18.203 18.203 C 18.962 17.443,19.419 16.807,19.882 15.860 C 20.505 14.588,20.769 13.439,20.769 12.000 C 20.769 10.561,20.505 9.412,19.882 8.140 C 19.419 7.193,18.962 6.557,18.203 5.797 C 17.452 5.046,16.816 4.589,15.877 4.123 C 15.315 3.845,14.586 3.581,13.999 3.443 C 13.210 3.259,12.130 3.177,11.320 3.240 M13.446 4.934 C 14.119 5.079,14.585 5.244,15.220 5.560 C 15.974 5.936,16.433 6.272,17.081 6.919 C 17.682 7.520,18.041 7.997,18.377 8.643 C 18.942 9.726,19.199 10.775,19.199 12.000 C 19.199 13.529,18.765 14.902,17.881 16.169 C 17.547 16.648,16.656 17.540,16.160 17.891 C 15.704 18.214,14.802 18.672,14.286 18.842 C 13.084 19.238,11.673 19.311,10.440 19.039 C 9.580 18.849,8.560 18.398,7.840 17.890 C 7.347 17.542,6.458 16.653,6.110 16.160 C 5.769 15.677,5.319 14.782,5.145 14.240 C 4.879 13.412,4.820 13.007,4.820 12.000 C 4.820 10.993,4.879 10.588,5.145 9.760 C 5.319 9.218,5.769 8.323,6.110 7.840 C 6.460 7.345,7.350 6.454,7.831 6.119 C 8.560 5.610,9.397 5.221,10.196 5.019 C 10.910 4.839,11.267 4.802,12.160 4.818 C 12.847 4.831,13.056 4.850,13.446 4.934 M11.791 7.043 C 11.163 7.142,10.691 7.727,10.728 8.360 C 10.773 9.136,11.469 9.699,12.209 9.558 C 12.822 9.442,13.236 8.975,13.272 8.360 C 13.294 7.978,13.176 7.685,12.882 7.396 C 12.576 7.094,12.214 6.977,11.791 7.043 M12.222 8.098 C 12.276 8.152,12.320 8.243,12.320 8.300 C 12.320 8.444,12.154 8.600,12.000 8.600 C 11.846 8.600,11.680 8.444,11.680 8.300 C 11.680 8.156,11.846 8.000,12.000 8.000 C 12.078 8.000,12.160 8.036,12.222 8.098 M11.616 10.774 C 10.705 11.073,10.425 12.210,11.094 12.895 C 11.708 13.524,12.761 13.357,13.148 12.569 C 13.244 12.373,13.260 12.292,13.260 12.000 C 13.260 11.720,13.243 11.625,13.162 11.461 C 13.036 11.204,12.766 10.936,12.528 10.830 C 12.295 10.727,11.845 10.699,11.616 10.774 M12.203 11.797 C 12.331 11.924,12.343 11.985,12.275 12.135 C 12.211 12.276,12.033 12.343,11.885 12.282 C 11.773 12.236,11.680 12.097,11.680 11.975 C 11.680 11.884,11.901 11.680,12.000 11.680 C 12.047 11.680,12.139 11.733,12.203 11.797 M11.709 14.481 C 10.762 14.719,10.401 15.882,11.054 16.590 C 11.298 16.855,11.553 16.970,11.944 16.992 C 12.234 17.008,12.295 16.998,12.514 16.900 C 13.337 16.530,13.536 15.480,12.907 14.831 C 12.623 14.539,12.095 14.384,11.709 14.481 M12.234 15.550 C 12.472 15.812,12.105 16.185,11.812 15.980 C 11.691 15.895,11.656 15.702,11.739 15.576 C 11.868 15.379,12.069 15.368,12.234 15.550 " stroke="none" fill-rule="evenodd" fill="#666666"></path></svg>
