<svg width="24" height="24" viewBox="0 0 24 24" fill="none" xmlns="http://www.w3.org/2000/svg"><path d="M11.100 3.045 C 8.051 3.333,5.288 5.262,3.917 8.060 C 2.232 11.497,2.926 15.644,5.641 18.359 C 8.361 21.079,12.532 21.773,15.957 20.077 C 17.780 19.174,19.206 17.744,20.080 15.940 C 20.507 15.060,20.742 14.308,20.906 13.300 C 21.006 12.686,21.006 11.314,20.906 10.700 C 20.742 9.691,20.502 8.923,20.082 8.060 C 18.431 4.672,14.877 2.688,11.100 3.045 M12.340 7.066 C 12.709 7.192,13.000 7.604,13.000 8.000 C 13.000 8.527,12.527 9.000,12.000 9.000 C 11.758 9.000,11.479 8.881,11.299 8.701 C 10.907 8.309,10.908 7.690,11.300 7.298 C 11.577 7.020,11.957 6.936,12.340 7.066 M12.340 11.066 C 12.709 11.192,13.000 11.604,13.000 12.000 C 13.000 12.527,12.527 13.000,12.000 13.000 C 11.758 13.000,11.479 12.881,11.299 12.701 C 10.907 12.309,10.908 11.690,11.300 11.298 C 11.577 11.020,11.957 10.936,12.340 11.066 M12.340 15.066 C 12.709 15.192,13.000 15.604,13.000 16.000 C 13.000 16.527,12.527 17.000,12.000 17.000 C 11.758 17.000,11.479 16.881,11.299 16.701 C 10.907 16.309,10.908 15.690,11.300 15.298 C 11.577 15.020,11.957 14.936,12.340 15.066 " fill="#000" stroke="none" fill-rule="evenodd"></path></svg>