<svg width="14" height="17" viewBox="0 0 14 17" fill="none" xmlns="http://www.w3.org/2000/svg">
<path d="M7 9C9.46875 9 11.5 7 11.5 4.5C11.5 2.03125 9.46875 0 7 0C4.5 0 2.5 2.03125 2.5 4.5C2.5 7 4.5 9 7 9ZM7 1.5C8.625 1.5 10 2.875 10 4.5C10 6.15625 8.625 7.5 7 7.5C5.34375 7.5 4 6.15625 4 4.5C4 2.875 5.34375 1.5 7 1.5ZM9.78125 9.5C9.4375 9.5 9.09375 9.59375 8.78125 9.71875C8.21875 9.90625 7.625 10 7 10C6.34375 10 5.75 9.90625 5.1875 9.71875C4.875 9.59375 4.53125 9.5 4.1875 9.5C1.875 9.5 0 11.4062 0 13.7188V15.25C0 15.6875 0.3125 16 0.75 16C1.15625 16 1.5 15.6875 1.5 15.25V13.7188C1.5 12.2812 2.59375 11.125 4 11.0312V12.5938C3.25 12.8125 2.75 13.4688 2.75 14.25C2.75 15.2188 3.53125 16 4.5 16C5.4375 16 6.25 15.2188 6.25 14.25C6.25 13.4688 5.71875 12.8125 5 12.5938V11.1875C5.625 11.4062 6.3125 11.5 7 11.5C7.65625 11.5 8.34375 11.4062 9 11.1875V12.3438C8.09375 12.5625 7.5 13.4062 7.5 14.3438V15.25C7.5 15.4062 7.53125 15.5312 7.625 15.625L7.96875 15.9375C8.0625 16.0312 8.21875 16.0312 8.3125 15.9375L8.65625 15.5938C8.75 15.5 8.75 15.3438 8.65625 15.2188L8.46875 15.0625V14.25C8.46875 13.6562 9.03125 13.1875 9.65625 13.2812C10.1562 13.3438 10.4688 13.8125 10.4688 14.3125V15.0625L10.3125 15.2188C10.2188 15.3438 10.2188 15.5 10.3125 15.5938L10.6562 15.9375C10.75 16.0312 10.9062 16.0312 11 15.9375L11.3438 15.625C11.4375 15.5312 11.4688 15.4062 11.4688 15.25V14.25C11.4688 13.3438 10.8438 12.5625 9.96875 12.3438V11.0312C11.375 11.125 12.4688 12.2812 12.4688 13.7188V15.25C12.4688 15.6875 12.8125 16 13.2188 16C13.6562 16 13.9688 15.6875 13.9688 15.25V13.7188C14 11.4062 12.0938 9.5 9.78125 9.5ZM5.25 14.25C5.25 14.6875 4.90625 15 4.5 15C4.0625 15 3.75 14.6875 3.75 14.25C3.75 13.8438 4.0625 13.5 4.5 13.5C4.90625 13.5 5.25 13.8438 5.25 14.25Z" fill="#666666"/>
</svg>
